<svg width="90" height="72" viewBox="0 0 90 72" fill="none" xmlns="http://www.w3.org/2000/svg">
<path d="M42.4809 2.40017C43.5326 -0.80006 48.1119 -0.800054 49.1636 2.40017L53.365 15.1844C53.8353 16.6156 55.1843 17.5846 56.7063 17.5846H70.3022C73.7057 17.5846 75.1207 21.8905 72.3673 23.8683L61.368 31.7695C60.1366 32.654 59.6213 34.2218 60.0917 35.653L64.2931 48.4373C65.3448 51.6375 61.6401 54.2987 58.8867 52.3209L47.8873 44.4197C46.656 43.5352 44.9886 43.5352 43.7572 44.4197L32.7579 52.3209C30.0045 54.2987 26.2998 51.6375 27.3515 48.4373L31.5528 35.653C32.0232 34.2218 31.5079 32.654 30.2766 31.7695L19.2772 23.8683C16.5238 21.8905 17.9389 17.5846 21.3423 17.5846H34.9382C36.4603 17.5846 37.8092 16.6156 38.2796 15.1844L42.4809 2.40017Z" fill="url(#paint0_linear_10591_19486)"/>
<path d="M21.0176 3.9585L22.2207 11.2918" stroke="#DDEBF6" stroke-width="2" stroke-linecap="round"/>
<path d="M10.6035 7.78101L15.3121 13.5303" stroke="#DDEBF6" stroke-width="2" stroke-linecap="round"/>
<path d="M5 17.9705L12.3949 18.7063" stroke="#DDEBF6" stroke-width="2" stroke-linecap="round"/>
<g filter="url(#filter0_d_10591_19486)">
<rect x="2" y="59" width="86" height="13" fill="url(#paint1_linear_10591_19486)"/>
</g>
<g filter="url(#filter1_d_10591_19486)">
<rect x="9" y="53" width="72" height="6" fill="url(#paint2_linear_10591_19486)"/>
</g>
<defs>
<filter id="filter0_d_10591_19486" x="0" y="58" width="90" height="17" filterUnits="userSpaceOnUse" color-interpolation-filters="sRGB">
<feFlood flood-opacity="0" result="BackgroundImageFix"/>
<feColorMatrix in="SourceAlpha" type="matrix" values="0 0 0 0 0 0 0 0 0 0 0 0 0 0 0 0 0 0 127 0" result="hardAlpha"/>
<feOffset dy="1"/>
<feGaussianBlur stdDeviation="1"/>
<feComposite in2="hardAlpha" operator="out"/>
<feColorMatrix type="matrix" values="0 0 0 0 0 0 0 0 0 0 0 0 0 0 0 0 0 0 0.09 0"/>
<feBlend mode="normal" in2="BackgroundImageFix" result="effect1_dropShadow_10591_19486"/>
<feBlend mode="normal" in="SourceGraphic" in2="effect1_dropShadow_10591_19486" result="shape"/>
</filter>
<filter id="filter1_d_10591_19486" x="7" y="52" width="76" height="10" filterUnits="userSpaceOnUse" color-interpolation-filters="sRGB">
<feFlood flood-opacity="0" result="BackgroundImageFix"/>
<feColorMatrix in="SourceAlpha" type="matrix" values="0 0 0 0 0 0 0 0 0 0 0 0 0 0 0 0 0 0 127 0" result="hardAlpha"/>
<feOffset dy="1"/>
<feGaussianBlur stdDeviation="1"/>
<feComposite in2="hardAlpha" operator="out"/>
<feColorMatrix type="matrix" values="0 0 0 0 0.857753 0 0 0 0 0.900866 0 0 0 0 0.938589 0 0 0 1 0"/>
<feBlend mode="normal" in2="BackgroundImageFix" result="effect1_dropShadow_10591_19486"/>
<feBlend mode="normal" in="SourceGraphic" in2="effect1_dropShadow_10591_19486" result="shape"/>
</filter>
<linearGradient id="paint0_linear_10591_19486" x1="45.8223" y1="-7.76712" x2="78.2711" y2="62.4904" gradientUnits="userSpaceOnUse">
<stop stop-color="#D2E5F4"/>
<stop offset="1" stop-color="#EDF5FB"/>
</linearGradient>
<linearGradient id="paint1_linear_10591_19486" x1="2" y1="69.2143" x2="26.5009" y2="106.643" gradientUnits="userSpaceOnUse">
<stop stop-color="#DDEBF6"/>
<stop offset="1" stop-color="#EDF2F7"/>
</linearGradient>
<linearGradient id="paint2_linear_10591_19486" x1="11.1176" y1="49.5714" x2="10.1435" y2="67.6695" gradientUnits="userSpaceOnUse">
<stop stop-color="#DDEBF6"/>
<stop offset="1" stop-color="white"/>
</linearGradient>
</defs>
</svg>
