<svg width="24" height="24" viewBox="0 0 19 19" fill="none" xmlns="http://www.w3.org/2000/svg">
<path d="M9.5 18.5C14.4706 18.5 18.5 14.4706 18.5 9.5C18.5 4.52944 14.4706 0.5 9.5 0.5C4.52944 0.5 0.5 4.52944 0.5 9.5C0.5 14.4706 4.52944 18.5 9.5 18.5Z" fill="#EAF5FD" stroke="#5F86BF" stroke-linecap="round" stroke-linejoin="round"/>
<path d="M6.58105 6.35156C6.97648 6.35156 7.29764 6.67201 7.29785 7.06738C7.29785 7.46294 6.97661 7.78418 6.58105 7.78418C6.18568 7.78397 5.86523 7.46281 5.86523 7.06738C5.86545 6.67214 6.18581 6.35178 6.58105 6.35156Z" fill="#5F86BF" stroke="#5F86BF"/>
<path d="M12.4189 6.35156C12.8144 6.35156 13.1355 6.67201 13.1357 7.06738C13.1357 7.46294 12.8145 7.78418 12.4189 7.78418C12.0236 7.78397 11.7031 7.46281 11.7031 7.06738C11.7033 6.67214 12.0237 6.35178 12.4189 6.35156Z" fill="#5F86BF" stroke="#5F86BF"/>
<path d="M12.8706 13.2099C12.529 12.6183 12.0377 12.1271 11.4461 11.7855C10.8545 11.444 10.1834 11.2642 9.50026 11.2642C8.81712 11.2642 8.14602 11.444 7.5544 11.7855C6.96278 12.1271 6.47148 12.6183 6.12988 13.2099" fill="#EAF5FD"/>
<path d="M12.8706 13.2099C12.529 12.6183 12.0377 12.1271 11.4461 11.7855C10.8545 11.444 10.1834 11.2642 9.50026 11.2642C8.81712 11.2642 8.14602 11.444 7.5544 11.7855C6.96278 12.1271 6.47148 12.6183 6.12988 13.2099" stroke="#5F86BF" stroke-linecap="round" stroke-linejoin="round"/>
</svg>
